<svg width="58" height="58" viewBox="0 0 58 58" fill="none" xmlns="http://www.w3.org/2000/svg">
<path fill-rule="evenodd" clip-rule="evenodd" d="M29.3416 38.7268C29.1491 38.7268 28.9646 38.6504 28.8285 38.5143C28.6924 38.3782 28.616 38.1936 28.616 38.0012V20.8868L24.0504 25.4538C23.9141 25.5901 23.7293 25.6666 23.5366 25.6666C23.3439 25.6666 23.1591 25.5901 23.0229 25.4538C22.8866 25.3175 22.8101 25.1328 22.8101 24.9401C22.8101 24.7474 22.8866 24.5626 23.0229 24.4263L28.8278 18.6214C28.8952 18.5538 28.9753 18.5002 29.0635 18.4636C29.1516 18.427 29.2461 18.4082 29.3416 18.4082C29.437 18.4082 29.5315 18.427 29.6197 18.4636C29.7078 18.5002 29.7879 18.5538 29.8553 18.6214L35.6603 24.4263C35.7277 24.4938 35.7812 24.5739 35.8177 24.662C35.8543 24.7502 35.873 24.8447 35.873 24.9401C35.873 25.1328 35.7965 25.3175 35.6603 25.4538C35.524 25.5901 35.3392 25.6666 35.1465 25.6666C34.9538 25.6666 34.769 25.5901 34.6328 25.4538L30.0672 20.8868V38.0012C30.0672 38.1936 29.9907 38.3782 29.8547 38.5143C29.7186 38.6504 29.534 38.7268 29.3416 38.7268Z" fill="#DADADA"/>
<path opacity="0.4" fill-rule="evenodd" clip-rule="evenodd" d="M16.0504 13.0066C15.1859 13.7079 14.3671 14.4891 13.6044 15.3495C6.09091 23.8269 6.87228 36.7901 15.3497 44.3036C23.8271 51.8172 36.7903 51.0358 44.3038 42.5584C51.8173 34.081 51.0359 21.1178 42.5585 13.6043C41.6981 12.8417 40.7914 12.1645 39.8489 11.5722C40.1239 11.9349 40.3795 12.3081 40.6157 12.6904C41.1685 13.0878 41.7063 13.5171 42.2269 13.9785C50.4976 21.3088 51.2599 33.956 43.9296 42.2268C36.5992 50.4975 23.952 51.2598 15.6813 43.9295C7.41058 36.5991 6.64826 23.9519 13.9786 15.6812C14.44 15.1606 14.9225 14.6698 15.4236 14.2088C15.6121 13.8009 15.821 13.3997 16.0504 13.0066Z" fill="#D5D5D5"/>
</svg>
